<svg xmlns="http://www.w3.org/2000/svg" width="34" height="34"><defs><filter id="a" width="35" height="33.969" x="0" y=".031" filterUnits="userSpaceOnUse"><feOffset result="offset" dy="1" in="SourceAlpha"/><feGaussianBlur result="blur" stdDeviation="1"/><feFlood result="flood" flood-opacity=".25"/><feComposite result="composite" operator="in" in2="blur"/><feBlend result="blend" in="SourceGraphic"/></filter></defs><path d="M16.8 30.77a15.37 15.37 0 1 1 15.36-15.38A15.36 15.36 0 0 1 16.8 30.76zm.17-18.03c0-3.47-3.77-3.2-3.77-3.2H7.6v12.33l5.22-.03s4.5.34 4.54-3.7a2.9 2.9 0 0 0-1.9-2.9 2.56 2.56 0 0 0 1.5-2.5zm8.33-2.52h-4.8v1.37h4.8V10.2zm-2.45 2.1c-4.6 0-4.36 4.82-4.36 4.82s-.27 4.74 4.44 4.74a3.9 3.9 0 0 0 4.15-3h-2.34A1.77 1.77 0 0 1 23 19.94a2.1 2.1 0 0 1-2.2-2.2l6.4-.03s.66-5.38-4.35-5.38zm-.02 1.97a1.92 1.92 0 0 1 2.02 1.86l-4 .03a2.02 2.02 0 0 1 2-1.9zm-10.1 5.4h-2.6l-.02-3.3s1.6.02 2.66.02c0 0 2-.14 2 1.52a1.74 1.74 0 0 1-2.04 1.76zm0-5.3h-2.62v-2.7h2.3s2.12-.28 2.12 1.3-1.78 1.4-1.78 1.4z" fill="#fff" fill-rule="evenodd" filter="url(#a)"/></svg>