<svg xmlns="http://www.w3.org/2000/svg" width="34" height="34"><defs><filter id="a" width="34" height="33.75" x="0" y=".25" filterUnits="userSpaceOnUse"><feOffset result="offset" dy="1" in="SourceAlpha"/><feGaussianBlur result="blur" stdDeviation="1"/><feFlood result="flood" flood-opacity=".25"/><feComposite result="composite" operator="in" in2="blur"/><feBlend result="blend" in="SourceGraphic"/></filter></defs><path d="M16.55 27.72a12 12 0 1 1 11.95-12 11.97 11.97 0 0 1-11.95 12zm9.78-10.74a21.71 21.71 0 0 0-6.28-.04A43.6 43.6 0 0 1 21.97 24a9.65 9.65 0 0 0 4.36-7.02zm-6.25 7.97a44.35 44.35 0 0 0-1.96-7.58c-4.93 1.38-7.62 6.16-7.63 6.16a9.85 9.85 0 0 0 9.58 1.43zm-11.04-2.8c3.73-5.65 8.4-6.5 8.4-6.5l-.8-1.77s-3.2 1.24-9.94 1.45a9.96 9.96 0 0 0 2.34 6.8zm-2.14-8.5a34.58 34.58 0 0 0 8.92-1.34 33.63 33.63 0 0 0-3.72-5.4 10.03 10.03 0 0 0-5.2 6.74zm7.14-7.5a21.82 21.82 0 0 1 3.73 5.47 16.25 16.25 0 0 0 5.2-3.38 9.83 9.83 0 0 0-8.92-2.08zm10.14 3.3a15.35 15.35 0 0 1-5.63 3.76c.3.65.58 1.32.85 2a24.5 24.5 0 0 1 6.98 0 9.73 9.73 0 0 0-2.2-5.74zM16.64.28A15.37 15.37 0 1 1 1.3 15.63 15.36 15.36 0 0 1 16.63.26z" fill="#fff" fill-rule="evenodd" filter="url(#a)"/></svg>