<svg xmlns="http://www.w3.org/2000/svg" width="49" height="49"><defs><filter id="a" width="49" height="48.938" x="0" y=".063" filterUnits="userSpaceOnUse"><feOffset result="offset" dy="1" in="SourceAlpha"/><feGaussianBlur result="blur" stdDeviation="1"/><feFlood result="flood" flood-opacity=".25"/><feComposite result="composite" operator="in" in2="blur"/><feBlend result="blend" in="SourceGraphic"/></filter></defs><path d="M13.87 11.72a2.62 2.62 0 1 1-2.62 2.63 2.62 2.62 0 0 1 2.62-2.63zm-2.3 6.9h5.08V34h-5.1V18.6zm8.46-.1v15.4h5.15v-8.18s-.37-3.15 2.78-3.15c2.65 0 2.34 3.24 2.34 2.86.02-1.45 0 8.5 0 8.5h5.06l.06-8.04c0-1.46.03-7.67-5.7-7.67a4.8 4.8 0 0 0-4.54 2.56v-2.27h-5.15zM23.53.08a22.5 22.5 0 1 1-22.5 22.5A22.5 22.5 0 0 1 23.54.07z" fill="#fff" fill-rule="evenodd" filter="url(#a)"/></svg>