<svg xmlns="http://www.w3.org/2000/svg" width="34" height="34"><defs><filter id="a" width="34" height="34" x="0" y="0" filterUnits="userSpaceOnUse"><feOffset result="offset" dy="1" in="SourceAlpha"/><feGaussianBlur result="blur" stdDeviation="1"/><feFlood result="flood" flood-opacity=".25"/><feComposite result="composite" operator="in" in2="blur"/><feBlend result="blend" in="SourceGraphic"/></filter></defs><path d="M16.23 13.54c-6.22-4.2-6.63-3.4-6.63-3.4-.5 1.1 1.4 2.5 1.4 2.5h-.54s-.8-.02-.63.55a3.67 3.67 0 0 0 1.14 1.48 1.55 1.55 0 0 0 1.04 0s-.6.33-1 .58c-.64.4-.18.78-.1.85a3.04 3.04 0 0 0 2.15.85 3.28 3.28 0 0 0-.62 1 1.05 1.05 0 0 0 .44.78 2.04 2.04 0 0 0 .9.28c-3.36 3.6-7.42 0-7.42-.02.45 2.62 4.3 5.14 11.07 4.17 5.5-.88 7.24-6.9 7.24-6.9s2.27.13 2.52-1.22a5.67 5.67 0 0 1-1.73-.08s1.75-.76 1.83-1.67a3.86 3.86 0 0 1-2.58.57c-1.2-4.13-4.04-4.13-4.04-4.13s1.2-.7 1.18-1.1a1.52 1.52 0 0 0-1.2.26.44.44 0 0 0-.15-.65 1.32 1.32 0 0 0-.7.7.66.66 0 0 0-.32-.33c-1.9.53-3.25 4.94-3.25 4.94zM16.53 0A15.37 15.37 0 1 1 1.2 15.38 15.36 15.36 0 0 1 16.53 0z" fill="#fff" fill-rule="evenodd" filter="url(#a)"/></svg>