<svg xmlns="http://www.w3.org/2000/svg" width="49" height="49"><defs><style>.cls-1 { fill: #fff; fill-rule: evenodd; filter: url(#filter); }</style><filter id="filter" width="49" height="48.063" x="0" y=".938" filterUnits="userSpaceOnUse"><feOffset result="offset" dy="1" in="SourceAlpha"/><feGaussianBlur result="blur" stdDeviation="1"/><feFlood result="flood" flood-opacity=".25"/><feComposite result="composite" operator="in" in2="blur"/><feBlend result="blend" in="SourceGraphic"/></filter></defs><path id="google_plus_" d="M24.7 31.12c-.08.14.4 3.44-5 3.64-5.8-.1-5.93-3.78-5.93-4.12-.03-3.83 5.14-4.02 6.47-4.06 1.15.14 4.43 2.05 4.47 4.54zm-5.26-9.9c4.48 0 3.33-5.03 3.33-5.03s-1.08-4.87-4.24-4.53c-4.05.05-2.92 5.1-2.92 5.1s.95 4.28 3.84 4.44zm-.26.85c-.64.05-.8.04-1.08.05a5.36 5.36 0 0 1-5.53-5.32 6 6 0 0 1 2.1-4.52c1.04-.9 2.6-1.8 6.05-1.8h6.96l-2.17 1.2h-2.1a5.53 5.53 0 0 1 2.46 4.52c0 3.98-3.8 4.43-3.8 6.5 0 1.12 1.25 1.57 2.1 2.35a5.54 5.54 0 0 1 2.63 4.7c0 3.2-2.93 6.37-8.7 6.42.02.04-7.2.14-7.43-4.84 0 .04-.32-2.23 2.77-4.12 1.9-1.26 4.44-1.37 6.4-1.57a3.25 3.25 0 0 1-1-2.27 3.2 3.2 0 0 1 .34-1.3zm13.3-11.77h2.1v8.47h-2.1V10.3zm-3.18 3.18h8.46v2.1H29.3v-2.1zM24.48.95a22.5 22.5 0 1 1-22.5 22.5A22.5 22.5 0 0 1 24.48.95z" class="cls-1"/></svg>