<svg xmlns="http://www.w3.org/2000/svg" width="48" height="48"><defs><style>.cls-1 { fill: #fff; fill-rule: evenodd; filter: url(#filter); }</style><filter id="filter" width="48" height="48" x="0" y="0" filterUnits="userSpaceOnUse"><feOffset result="offset" dy="1" in="SourceAlpha"/><feGaussianBlur result="blur" stdDeviation="1"/><feFlood result="flood" flood-opacity=".25"/><feComposite result="composite" operator="in" in2="blur"/><feBlend result="blend" in="SourceGraphic"/></filter></defs><path id="tumblr" d="M21.6 11.96H25v6.02h5v4h-5s0 4.7 0 6.28c0 3.05 2.12 3.66 6 1.88v4a16.14 16.14 0 0 1-6.88.77C22.42 34.67 20 33.64 20 31v-9.03h-3s0-2.84 0-3.96c3.47-1.7 4.4-3.26 4.6-6.04zM23.5 0A22.5 22.5 0 1 1 1 22.5 22.5 22.5 0 0 1 23.5 0z" class="cls-1"/></svg>